<?xml version="1.0" encoding="utf-8"?>
<!-- Generator: Adobe Illustrator 17.0.0, SVG Export Plug-In . SVG Version: 6.00 Build 0)  -->
<!DOCTYPE svg PUBLIC "-//W3C//DTD SVG 1.1//EN" "http://www.w3.org/Graphics/SVG/1.1/DTD/svg11.dtd">
<svg version="1.1" id="Ebene_1" xmlns="http://www.w3.org/2000/svg" xmlns:xlink="http://www.w3.org/1999/xlink" x="0px" y="0px"
	 width="120%" height="100%" viewBox="0 160 1190.55 841.89" enable-background="new 0 0 1190.55 841.89"
	 xml:space="preserve">
<g>
	<rect x="9.302" y="47.9" opacity="0" width="1168.605" height="741.574"/>
	<path fill="#FFFFFF" d="M58.716,280.763C72.009,231.99,197.973,32.535,449.895,115.964
		c251.922,83.429,300.289,110.704,439.415,112.787c139.126,2.083,197.233,17.47,239.554,293.168
		c42.321,275.698-584.18,289.531-791.756,54.681C129.532,341.75,44.584,332.618,58.716,280.763z"/>
	<path fill="none" stroke="#FFFFFF" stroke-width="45" d="M58.716,280.763C72.009,231.99,197.973,32.535,449.895,115.964
		c251.922,83.429,300.289,110.704,439.415,112.787c139.126,2.083,197.234,17.47,239.554,293.168
		c42.322,275.698-584.18,289.531-791.756,54.681C129.533,341.75,44.584,332.618,58.716,280.763z"/>
	<path fill="#B31B25" d="M57.791,280.798c13.292-48.773,139.256-248.228,391.178-164.799
		c251.922,83.429,300.288,110.704,439.415,112.787c139.127,2.083,197.233,17.47,239.554,293.168
		c42.321,275.698-584.181,289.531-791.756,54.681C128.607,341.784,43.658,332.653,57.791,280.798z"/>
	<path opacity="0.1" fill="none" stroke="#E07068" stroke-width="45" d="M57.791,280.797
		c13.293-48.773,139.257-248.228,391.178-164.799c251.922,83.429,300.289,110.704,439.416,112.787
		c139.127,2.083,197.232,17.47,239.554,293.168c42.32,275.698-584.181,289.531-791.756,54.681
		C128.607,341.784,43.658,332.653,57.791,280.797z"/>
	<g>
		<defs>
			<rect id="SVGID_1_" x="573.815" y="335.364" width="429.113" height="283.298"/>
		</defs>
		<clipPath id="SVGID_2_">
			<use xlink:href="#SVGID_1_"  overflow="visible"/>
		</clipPath>
		<g opacity="0.86" clip-path="url(#SVGID_2_)" enable-background="new    ">
			<g>
				<defs>
					<rect id="SVGID_3_" x="580.065" y="370.777" width="416.615" height="212.474"/>
				</defs>
				<clipPath id="SVGID_4_">
					<use xlink:href="#SVGID_3_"  overflow="visible"/>
				</clipPath>
				<g clip-path="url(#SVGID_4_)">
					<defs>
						<rect id="SVGID_5_" x="573.815" y="335.364" width="429.113" height="283.298"/>
					</defs>
					<clipPath id="SVGID_6_">
						<use xlink:href="#SVGID_5_"  overflow="visible"/>
					</clipPath>
					<path clip-path="url(#SVGID_6_)" fill="#FFFFFF" d="M933.458,457.324c62.191,51.684,47.65,102.397-32.48,113.272
						c-80.129,10.874-195.502-22.208-257.693-73.892c-62.191-51.684-47.649-102.397,32.48-113.272
						C755.895,372.557,871.268,405.64,933.458,457.324"/>
				</g>
			</g>
		</g>
	</g>
	<path opacity="0.2" fill="none" stroke="#FFFFFF" stroke-width="4" d="M226.435,161.227c0,0-169.345,76.177,19.603,156.348
		c188.948,80.172,17.711,101.841,195.852,190.149c178.141,88.308,0.364,145.579,255.86,147.128
		c255.496,1.549,369.036-24.914,358.075-124.521"/>
</g>
</svg>
