<?xml version="1.0" encoding="utf-8"?>
<!-- Generator: Adobe Illustrator 17.0.0, SVG Export Plug-In . SVG Version: 6.00 Build 0)  -->
<!DOCTYPE svg PUBLIC "-//W3C//DTD SVG 1.1//EN" "http://www.w3.org/Graphics/SVG/1.1/DTD/svg11.dtd">
<svg version="1.1" id="Ebene_1" xmlns="http://www.w3.org/2000/svg" xmlns:xlink="http://www.w3.org/1999/xlink" x="0px" y="0px"
	 width="1240" height="841.89" viewBox="0 190 1190.55 841.89" enable-background="new 0 0 1190.55 841.89"
	 xml:space="preserve">
<g>
	
		<rect x="2.302" y="47.9" transform="matrix(-0.9755 0.2199 -0.2199 -0.9755 1250.9288 698.1107)" opacity="0" width="1168.605" height="741.574"/>
	<path fill="#FFFFFF" d="M34.479,401.778c2.24-50.502,81.254-272.777,345.356-246.796c264.102,25.981,317.283,41.951,453.461,13.385
		c136.178-28.566,196.246-26.335,298.165,233.305c101.919,259.64-506.2,410.922-760.344,227.473
		C116.974,445.697,32.097,455.472,34.479,401.778z"/>
	<path fill="none" stroke="#FFFFFF" stroke-width="45" d="M34.479,401.778c2.24-50.502,81.254-272.777,345.356-246.796
		c264.102,25.981,317.283,41.951,453.461,13.385c136.178-28.566,196.247-26.335,298.165,233.305
		c101.92,259.64-506.2,410.922-760.344,227.473C116.974,445.697,32.097,455.472,34.479,401.778z"/>
	<path fill="#B31B25" d="M33.584,402.016c2.24-50.502,81.254-272.777,345.356-246.796c264.102,25.981,317.283,41.951,453.461,13.385
		c136.178-28.566,196.246-26.335,298.165,233.305c101.919,259.64-506.2,410.922-760.344,227.473
		C116.079,445.935,31.202,455.709,33.584,402.016z"/>
	<path opacity="0.1" fill="none" stroke="#E07068" stroke-width="45" d="M33.584,402.016
		c2.24-50.502,81.254-272.777,345.356-246.796c264.102,25.981,317.283,41.951,453.462,13.385
		c136.178-28.566,196.245-26.335,298.165,233.305c101.918,259.641-506.201,410.922-760.344,227.473
		C116.079,445.935,31.202,455.709,33.584,402.016z"/>
	<g>
		<defs>
			
				<rect id="SVGID_1_" x="574.874" y="291.101" transform="matrix(-0.9755 0.2199 -0.2199 -0.9755 1654.7083 681.2839)" width="429.113" height="283.298"/>
		</defs>
		<clipPath id="SVGID_2_">
			<use xlink:href="#SVGID_1_"  overflow="visible"/>
		</clipPath>
		<g opacity="0.86" clip-path="url(#SVGID_2_)" enable-background="new    ">
			<g>
				<defs>
					
						<rect id="SVGID_3_" x="581.124" y="326.513" transform="matrix(-0.9755 0.2199 -0.2199 -0.9755 1654.7083 681.2839)" width="416.615" height="212.474"/>
				</defs>
				<clipPath id="SVGID_4_">
					<use xlink:href="#SVGID_3_"  overflow="visible"/>
				</clipPath>
				<g clip-path="url(#SVGID_4_)">
					<defs>
						
							<rect id="SVGID_5_" x="574.874" y="291.101" transform="matrix(-0.9755 0.2199 -0.2199 -0.9755 1654.7083 681.2839)" width="429.113" height="283.298"/>
					</defs>
					<clipPath id="SVGID_6_">
						<use xlink:href="#SVGID_5_"  overflow="visible"/>
					</clipPath>
					<path clip-path="url(#SVGID_6_)" fill="#FFFFFF" d="M926.635,381.633c72.035,36.741,69.003,89.411-6.773,117.642
						c-75.776,28.231-195.6,21.332-267.635-15.408c-72.035-36.741-69.003-89.411,6.773-117.642
						C734.776,337.994,854.6,344.893,926.635,381.633"/>
				</g>
			</g>
		</g>
	</g>
	<path opacity="0.2" fill="none" stroke="#FFFFFF" stroke-width="4" d="M171.801,248.283c0,0-148.445,111.556,53.508,148.209
		c201.954,36.653,39.675,95.453,232.876,142.419c193.201,46.967,32.372,141.935,281.953,87.254
		c249.581-54.68,354.521-105.466,321.921-200.224"/>
</g>
</svg>
